<svg width="36" height="36" viewBox="0 0 36 36" fill="none" xmlns="http://www.w3.org/2000/svg">
<g clip-path="url(#clip0_291_963)">
<path d="M8.05547 9.07319L8.06443 9.06449L8.07313 9.05553C10.1732 6.89608 13.8134 6.0565 18.5766 5.98993C23.3398 6.0565 26.98 6.89608 29.0801 9.05553L29.0888 9.06449L29.0978 9.07319C31.2572 11.1733 32.0968 14.8135 32.1634 19.5767C32.0968 24.3399 31.2572 27.9801 29.0978 30.0802L29.0888 30.0889L29.0801 30.0978C26.98 32.2573 23.3398 33.0969 18.5766 33.1634C13.8134 33.0969 10.1732 32.2573 8.07313 30.0978L8.06443 30.0889L8.05547 30.0802C5.89602 27.9801 5.05644 24.3399 4.98987 19.5767C5.05644 14.8135 5.89602 11.1733 8.05547 9.07319Z" stroke="white" stroke-width="1.79207"/>
<path d="M15.589 14.6485L15.589 14.6485L23.4563 19.027C23.4564 19.027 23.4564 19.027 23.4564 19.027C23.8872 19.2669 23.8872 19.8864 23.4564 20.1263C23.4564 20.1264 23.4564 20.1264 23.4563 20.1264L15.589 24.5049L16.0126 25.2661L15.589 24.5049C15.1701 24.7381 14.6545 24.4352 14.6545 23.9553V15.1981C14.6545 14.7182 15.1701 14.4153 15.589 14.6485Z" stroke="white" stroke-width="1.79207"/>
</g>
<defs>
<clipPath id="clip0_291_963">
<rect width="34.9454" height="34.9454" fill="white" transform="translate(0.585327 0.75238)"/>
</clipPath>
</defs>
</svg>
