<svg width="100" height="100" viewBox="0 0 100 100" fill="none" xmlns="http://www.w3.org/2000/svg">
<path d="M88.3063 69.9708C86.8489 80.3078 86.1202 85.4763 82.3819 88.5715C78.6436 91.6667 73.13 91.6667 62.1027 91.6667H37.8974C26.87 91.6667 21.3564 91.6667 17.6181 88.5715C13.8798 85.4763 13.1511 80.3078 11.6937 69.9708L9.93131 57.4708C8.07285 44.2893 7.14363 37.6986 11.093 33.4326C15.0424 29.1667 22.0732 29.1667 36.135 29.1667H63.865C77.9268 29.1667 84.9576 29.1667 88.907 33.4326C92.0272 36.8029 92.1023 41.6242 91.0799 50" stroke="white" stroke-width="2" stroke-linecap="round"/>
<path d="M81.5072 29.1667C82.4598 23.7301 78.2764 18.75 72.7571 18.75H27.2412C21.7218 18.75 17.5384 23.7301 18.491 29.1667" stroke="white" stroke-width="2"/>
<path d="M72.9164 18.75C73.0346 17.6705 73.0937 17.1306 73.0947 16.6848C73.104 12.4197 69.8914 8.83599 65.6506 8.38089C65.2073 8.33331 64.6643 8.33331 63.5782 8.33331H36.4208C35.3348 8.33331 34.7918 8.33331 34.3484 8.38089C30.1077 8.83599 26.8951 12.4197 26.9043 16.6847C26.9053 17.1306 26.9644 17.6704 27.0826 18.75" stroke="white" stroke-width="2"/>
<circle cx="68.75" cy="47.9167" r="6.25" stroke="white" stroke-width="2"/>
<path d="M83.3329 83.3333L71.3153 74.3809C67.4399 71.4939 61.6685 71.2064 57.4027 73.6879L56.291 74.3346C53.3265 76.059 49.2935 75.7698 46.7315 73.6492L30.7391 60.4121C27.5471 57.77 22.4269 57.6289 19.0296 60.0893L13.5132 64.0846" stroke="white" stroke-width="2" stroke-linecap="round"/>
</svg>
