<svg width="23" height="21" viewBox="0 0 23 21" fill="none" xmlns="http://www.w3.org/2000/svg">
<rect x="22.5" y="20.5" width="22" height="20" rx="4.5" transform="rotate(-180 22.5 20.5)" stroke="white"/>
<path d="M7 11.0033C7.00348 11.3542 7.15489 11.6898 7.42143 11.9373L10.4857 14.806C10.6195 14.9303 10.8006 15 10.9893 15C11.178 15 11.359 14.9303 11.4929 14.806C11.5598 14.744 11.6129 14.6702 11.6492 14.5889C11.6855 14.5076 11.7041 14.4204 11.7041 14.3323C11.7041 14.2443 11.6855 14.1571 11.6492 14.0758C11.6129 13.9945 11.5598 13.9207 11.4929 13.8586L9.14286 11.6704H16.2857C16.4752 11.6704 16.6568 11.6001 16.7908 11.475C16.9247 11.3499 17 11.1802 17 11.0033C17 10.8263 16.9247 10.6566 16.7908 10.5315C16.6568 10.4064 16.4752 10.3361 16.2857 10.3361H9.14286L11.4929 8.1412C11.6274 8.01646 11.7033 7.84692 11.704 7.66988C11.7046 7.49285 11.63 7.32281 11.4964 7.19718C11.3629 7.07156 11.1814 7.00063 10.9918 7C10.8023 6.99938 10.6202 7.06911 10.4857 7.19385L7.42143 10.0626C7.15315 10.3117 7.00159 10.65 7 11.0033Z" fill="white"/>
</svg>
