<svg width="16" height="16" viewBox="0 0 16 16" fill="none" xmlns="http://www.w3.org/2000/svg">
<path d="M2 15V3L1.5 2L3 0.5H9L13 1L14.5 2V15L13 15.5L8 10.5L3 15H2Z" fill="url(#paint0_linear_1_157)"/>
<g clip-path="url(#clip0_1_157)">
<path d="M13.4248 16C13.1781 15.9993 12.9341 15.9498 12.7067 15.8542C12.4794 15.7587 12.2732 15.619 12.1001 15.4433L8.0001 11.3673L3.9001 15.446C3.63679 15.7131 3.2991 15.8948 2.93105 15.9672C2.563 16.0396 2.18167 15.9995 1.83677 15.852C1.48845 15.7119 1.19047 15.47 0.981741 15.1579C0.773016 14.8459 0.663248 14.4781 0.666769 14.1027V3.33333C0.666769 2.44927 1.01796 1.60143 1.64308 0.976305C2.2682 0.351184 3.11605 -5.72205e-06 4.0001 -5.72205e-06L12.0001 -5.72205e-06C12.4378 -5.72205e-06 12.8713 0.0862135 13.2757 0.253729C13.6801 0.421245 14.0476 0.666776 14.3571 0.976305C14.6667 1.28583 14.9122 1.6533 15.0797 2.05772C15.2472 2.46214 15.3334 2.89559 15.3334 3.33333V14.1027C15.3372 14.4778 15.2278 14.8453 15.0196 15.1574C14.8113 15.4694 14.5139 15.7115 14.1661 15.852C13.9313 15.9502 13.6793 16.0005 13.4248 16ZM4.0001 1.33333C3.46967 1.33333 2.96096 1.54404 2.58589 1.91911C2.21082 2.29419 2.0001 2.8029 2.0001 3.33333V14.1027C1.99986 14.2138 2.03255 14.3224 2.09404 14.4149C2.15552 14.5075 2.24305 14.5797 2.34556 14.6225C2.44808 14.6653 2.56097 14.6768 2.67 14.6554C2.77902 14.6341 2.87928 14.5809 2.9581 14.5027L7.53344 9.95533C7.65834 9.83116 7.82731 9.76147 8.00344 9.76147C8.17956 9.76147 8.34853 9.83116 8.47344 9.95533L13.0434 14.5013C13.1223 14.5796 13.2225 14.6328 13.3315 14.6541C13.4406 14.6754 13.5535 14.664 13.656 14.6212C13.7585 14.5784 13.846 14.5061 13.9075 14.4136C13.969 14.3211 14.0017 14.2124 14.0014 14.1013V3.33333C14.0014 2.8029 13.7907 2.29419 13.4156 1.91911C13.0406 1.54404 12.5319 1.33333 12.0014 1.33333H4.0001Z" fill="black"/>
</g>
<defs>
<linearGradient id="paint0_linear_1_157" x1="8" y1="0.5" x2="8" y2="15.5" gradientUnits="userSpaceOnUse">
<stop stop-color="#7C00FF"/>
<stop offset="1"/>
</linearGradient>
<clipPath id="clip0_1_157">
<rect width="16" height="16" fill="white"/>
</clipPath>
</defs>
</svg>
