<svg width="32" height="32" viewBox="0 0 32 32" fill="none" xmlns="http://www.w3.org/2000/svg">
<path d="M12 29.3333H20C26.6666 29.3333 29.3333 26.6666 29.3333 20V12C29.3333 5.33329 26.6666 2.66663 20 2.66663H12C5.33329 2.66663 2.66663 5.33329 2.66663 12V20C2.66663 26.6666 5.33329 29.3333 12 29.3333Z" stroke="white" stroke-width="1.5" stroke-linecap="round" stroke-linejoin="round"/>
<path d="M12 13.3333C13.4728 13.3333 14.6667 12.1394 14.6667 10.6667C14.6667 9.19391 13.4728 8 12 8C10.5273 8 9.33337 9.19391 9.33337 10.6667C9.33337 12.1394 10.5273 13.3333 12 13.3333Z" stroke="white" stroke-width="1.5" stroke-linecap="round" stroke-linejoin="round"/>
<path d="M3.56006 25.2667L10.1334 20.8534C11.1867 20.1467 12.7067 20.2267 13.6534 21.04L14.0934 21.4267C15.1334 22.32 16.8134 22.32 17.8534 21.4267L23.4001 16.6667C24.4401 15.7734 26.1201 15.7734 27.1601 16.6667L29.3334 18.5334" stroke="white" stroke-width="1.5" stroke-linecap="round" stroke-linejoin="round"/>
</svg>
