<svg width="18" height="19" viewBox="0 0 18 19" fill="none" xmlns="http://www.w3.org/2000/svg">
<path d="M9.32818 9.43305C12.0395 9.43305 14.2369 7.37014 14.2369 4.8248C14.2369 2.27946 12.0395 0.216553 9.32818 0.216553C6.61686 0.216553 4.41942 2.27946 4.41942 4.8248C4.41942 7.37014 6.61686 9.43305 9.32818 9.43305ZM12.7643 10.5851H12.1239C11.2725 10.9523 10.3253 11.1611 9.32818 11.1611C8.33109 11.1611 7.38769 10.9523 6.53249 10.5851H5.89205C3.0465 10.5851 0.737854 12.7524 0.737854 15.4238V16.9215C0.737854 17.8755 1.56237 18.6495 2.57864 18.6495H16.0777C17.094 18.6495 17.9185 17.8755 17.9185 16.9215V15.4238C17.9185 12.7524 15.6099 10.5851 12.7643 10.5851Z" fill="#7166F9"/>
</svg>
