<svg width="31" height="31" viewBox="0 0 31 31" fill="none" xmlns="http://www.w3.org/2000/svg">
<path d="M2.58337 11.625V8.39581C2.58337 5.17956 5.17962 2.58331 8.39587 2.58331H11.625" stroke="white" stroke-width="1.5" stroke-linecap="round" stroke-linejoin="round"/>
<path d="M19.375 2.58331H22.6042C25.8204 2.58331 28.4167 5.17956 28.4167 8.39581V11.625" stroke="white" stroke-width="1.5" stroke-linecap="round" stroke-linejoin="round"/>
<path d="M28.4166 20.6667V22.6042C28.4166 25.8204 25.8204 28.4167 22.6041 28.4167H20.6666" stroke="white" stroke-width="1.5" stroke-linecap="round" stroke-linejoin="round"/>
<path d="M11.625 28.4167H8.39587C5.17962 28.4167 2.58337 25.8204 2.58337 22.6042V19.375" stroke="white" stroke-width="1.5" stroke-linecap="round" stroke-linejoin="round"/>
<path d="M21.9583 12.2708V18.7291C21.9583 21.3125 20.6666 22.6041 18.0833 22.6041H12.9166C10.3333 22.6041 9.04163 21.3125 9.04163 18.7291V12.2708C9.04163 9.68748 10.3333 8.39581 12.9166 8.39581H18.0833C20.6666 8.39581 21.9583 9.68748 21.9583 12.2708Z" stroke="white" stroke-width="1.5" stroke-linecap="round" stroke-linejoin="round"/>
<path d="M24.5417 15.5H6.45837" stroke="white" stroke-width="1.5" stroke-linecap="round" stroke-linejoin="round"/>
</svg>
