<?xml version="1.0" encoding="UTF-8"?>
<!DOCTYPE svg PUBLIC "-//W3C//DTD SVG 1.1//EN" "http://www.w3.org/Graphics/SVG/1.1/DTD/svg11.dtd">
<svg xmlns="http://www.w3.org/2000/svg" version="1.1" width="690px" height="644px" style="shape-rendering:geometricPrecision; text-rendering:geometricPrecision; image-rendering:optimizeQuality; fill-rule:evenodd; clip-rule:evenodd" xmlns:xlink="http://www.w3.org/1999/xlink">
<g><path style="opacity:0.989" fill="#fefefe" d="M 201.5,5.5 C 201.5,6.83333 201.5,8.16667 201.5,9.5C 141.664,9.16761 81.9977,9.50094 22.5,10.5C 16.1667,12.1667 12.1667,16.1667 10.5,22.5C 9.50101,78.3309 9.16767,134.331 9.5,190.5C 8.16667,190.5 6.83333,190.5 5.5,190.5C 4.16667,190.5 2.83333,190.5 1.5,190.5C 1.82901,135.458 1.49568,80.4581 0.5,25.5C 2.4345,11.0654 10.6012,2.73212 25,0.5C 83.8039,1.49412 142.637,1.82745 201.5,1.5C 201.5,2.83333 201.5,4.16667 201.5,5.5 Z"/></g>
<g><path style="opacity:0.99" fill="#fefefe" d="M 689.5,20.5 C 689.5,77.1667 689.5,133.833 689.5,190.5C 688.167,190.5 686.833,190.5 685.5,190.5C 684.167,190.5 682.833,190.5 681.5,190.5C 681.832,134.331 681.499,78.3309 680.5,22.5C 678.732,15.7326 674.399,11.7326 667.5,10.5C 608.336,9.50095 549.002,9.16761 489.5,9.5C 489.5,8.16667 489.5,6.83333 489.5,5.5C 489.5,4.16667 489.5,2.83333 489.5,1.5C 548.208,1.82928 606.875,1.49595 665.5,0.5C 678.159,1.84269 686.159,8.50936 689.5,20.5 Z"/></g>
<g><path style="opacity:0.998" fill="#9e9e9e" d="M 201.5,5.5 C 297.5,5.5 393.5,5.5 489.5,5.5C 489.5,6.83333 489.5,8.16667 489.5,9.5C 549.002,9.16761 608.336,9.50095 667.5,10.5C 616.5,10.5 565.5,10.5 514.5,10.5C 514.5,62.1667 514.5,113.833 514.5,165.5C 569.833,165.5 625.167,165.5 680.5,165.5C 680.5,117.833 680.5,70.1667 680.5,22.5C 681.499,78.3309 681.832,134.331 681.5,190.5C 682.833,190.5 684.167,190.5 685.5,190.5C 685.5,278.5 685.5,366.5 685.5,454.5C 684.167,454.5 682.833,454.5 681.5,454.5C 681.832,510.336 681.499,566.002 680.5,621.5C 679.895,628.942 675.895,633.442 668.5,635C 608.492,634.836 548.825,635.67 489.5,637.5C 393.5,637.5 297.5,637.5 201.5,637.5C 142.175,635.67 82.5084,634.836 22.5,635C 17.274,634.067 13.6073,631.234 11.5,626.5C 11.5,625.833 11.5,625.167 11.5,624.5C 16.6929,631.298 23.6929,634.131 32.5,633C 80.4988,633.5 128.499,633.667 176.5,633.5C 176.5,581.833 176.5,530.167 176.5,478.5C 121.167,478.5 65.8333,478.5 10.5,478.5C 10.5,525.167 10.5,571.833 10.5,618.5C 10.1667,618.5 9.83333,618.5 9.5,618.5C 9.5,563.833 9.5,509.167 9.5,454.5C 8.16667,454.5 6.83333,454.5 5.5,454.5C 5.5,366.5 5.5,278.5 5.5,190.5C 6.83333,190.5 8.16667,190.5 9.5,190.5C 9.16767,134.331 9.50101,78.3309 10.5,22.5C 10.5,70.1667 10.5,117.833 10.5,165.5C 65.8333,165.5 121.167,165.5 176.5,165.5C 176.5,113.833 176.5,62.1667 176.5,10.5C 125.167,10.5 73.8333,10.5 22.5,10.5C 81.9977,9.50094 141.664,9.16761 201.5,9.5C 201.5,8.16667 201.5,6.83333 201.5,5.5 Z M 178.5,10.5 C 233.833,10.5 289.167,10.5 344.5,10.5C 344.5,62.1667 344.5,113.833 344.5,165.5C 289.167,165.5 233.833,165.5 178.5,165.5C 178.5,113.833 178.5,62.1667 178.5,10.5 Z M 346.5,10.5 C 401.833,10.5 457.167,10.5 512.5,10.5C 512.5,62.1667 512.5,113.833 512.5,165.5C 457.167,165.5 401.833,165.5 346.5,165.5C 346.5,113.833 346.5,62.1667 346.5,10.5 Z M 10.5,166.5 C 65.8333,166.5 121.167,166.5 176.5,166.5C 176.5,218.167 176.5,269.833 176.5,321.5C 121.167,321.5 65.8333,321.5 10.5,321.5C 10.5,269.833 10.5,218.167 10.5,166.5 Z M 178.5,166.5 C 233.833,166.5 289.167,166.5 344.5,166.5C 344.5,218.167 344.5,269.833 344.5,321.5C 289.167,321.5 233.833,321.5 178.5,321.5C 178.5,269.833 178.5,218.167 178.5,166.5 Z M 346.5,166.5 C 401.833,166.5 457.167,166.5 512.5,166.5C 512.5,218.167 512.5,269.833 512.5,321.5C 457.167,321.5 401.833,321.5 346.5,321.5C 346.5,269.833 346.5,218.167 346.5,166.5 Z M 514.5,166.5 C 569.833,166.5 625.167,166.5 680.5,166.5C 680.5,218.167 680.5,269.833 680.5,321.5C 625.167,321.5 569.833,321.5 514.5,321.5C 514.5,269.833 514.5,218.167 514.5,166.5 Z M 10.5,322.5 C 65.8333,322.5 121.167,322.5 176.5,322.5C 176.5,374.167 176.5,425.833 176.5,477.5C 121.167,477.5 65.8333,477.5 10.5,477.5C 10.5,425.833 10.5,374.167 10.5,322.5 Z M 178.5,322.5 C 233.833,322.5 289.167,322.5 344.5,322.5C 344.5,374.167 344.5,425.833 344.5,477.5C 289.167,477.5 233.833,477.5 178.5,477.5C 178.5,425.833 178.5,374.167 178.5,322.5 Z M 346.5,322.5 C 401.833,322.5 457.167,322.5 512.5,322.5C 512.5,374.167 512.5,425.833 512.5,477.5C 457.167,477.5 401.833,477.5 346.5,477.5C 346.5,425.833 346.5,374.167 346.5,322.5 Z M 514.5,322.5 C 569.833,322.5 625.167,322.5 680.5,322.5C 680.5,374.167 680.5,425.833 680.5,477.5C 625.167,477.5 569.833,477.5 514.5,477.5C 514.5,425.833 514.5,374.167 514.5,322.5 Z M 178.5,478.5 C 233.833,478.5 289.167,478.5 344.5,478.5C 344.5,530.167 344.5,581.833 344.5,633.5C 289.167,633.5 233.833,633.5 178.5,633.5C 178.5,581.833 178.5,530.167 178.5,478.5 Z M 346.5,478.5 C 401.833,478.5 457.167,478.5 512.5,478.5C 512.5,530.167 512.5,581.833 512.5,633.5C 457.167,633.5 401.833,633.5 346.5,633.5C 346.5,581.833 346.5,530.167 346.5,478.5 Z M 680.5,621.5 C 676.266,630.671 668.933,634.504 658.5,633C 610.501,633.5 562.501,633.667 514.5,633.5C 514.5,581.833 514.5,530.167 514.5,478.5C 569.833,478.5 625.167,478.5 680.5,478.5C 680.5,526.167 680.5,573.833 680.5,621.5 Z"/></g>
<g><path style="opacity:0.993" fill="#fefefe" d="M 5.5,454.5 C 6.83333,454.5 8.16667,454.5 9.5,454.5C 9.5,509.167 9.5,563.833 9.5,618.5C 9.56513,621.428 10.2318,624.095 11.5,626.5C 13.6073,631.234 17.274,634.067 22.5,635C 82.5084,634.836 142.175,635.67 201.5,637.5C 201.5,639.5 201.5,641.5 201.5,643.5C 141.167,643.5 80.8333,643.5 20.5,643.5C 8.74145,640.226 2.07478,632.393 0.5,620C 1.49372,564.863 1.82705,509.696 1.5,454.5C 2.83333,454.5 4.16667,454.5 5.5,454.5 Z"/></g>
<g><path style="opacity:0.994" fill="#fefefe" d="M 685.5,454.5 C 686.833,454.5 688.167,454.5 689.5,454.5C 689.5,511.167 689.5,567.833 689.5,624.5C 686.833,634.5 680.5,640.833 670.5,643.5C 610.167,643.5 549.833,643.5 489.5,643.5C 489.5,641.5 489.5,639.5 489.5,637.5C 548.825,635.67 608.492,634.836 668.5,635C 675.895,633.442 679.895,628.942 680.5,621.5C 681.499,566.002 681.832,510.336 681.5,454.5C 682.833,454.5 684.167,454.5 685.5,454.5 Z"/></g>
<g><path style="opacity:1" fill="#c9c9c9" d="M 9.5,618.5 C 9.83333,618.5 10.1667,618.5 10.5,618.5C 10.8333,620.5 11.1667,622.5 11.5,624.5C 11.5,625.167 11.5,625.833 11.5,626.5C 10.2318,624.095 9.56513,621.428 9.5,618.5 Z"/></g>
</svg>
