<svg width="346" height="323" viewBox="0 0 346 323" fill="none" xmlns="http://www.w3.org/2000/svg">
<rect x="5.25" y="5.25" width="83.5" height="78" stroke="#9E9E9E" stroke-width="0.5"/>
<rect x="5.25" y="83.25" width="83.5" height="78" stroke="#9E9E9E" stroke-width="0.5"/>
<rect x="5.25" y="161.25" width="83.5" height="78" stroke="#9E9E9E" stroke-width="0.5"/>
<rect x="5.25" y="239.25" width="83.5" height="78" stroke="#9E9E9E" stroke-width="0.5"/>
<rect x="89.25" y="5.25" width="83.5" height="78" stroke="#9E9E9E" stroke-width="0.5"/>
<rect x="89.25" y="83.25" width="83.5" height="78" stroke="#9E9E9E" stroke-width="0.5"/>
<rect x="89.25" y="161.25" width="83.5" height="78" stroke="#9E9E9E" stroke-width="0.5"/>
<rect x="89.25" y="239.25" width="83.5" height="78" stroke="#9E9E9E" stroke-width="0.5"/>
<rect x="173.25" y="5.25" width="83.5" height="78" stroke="#9E9E9E" stroke-width="0.5"/>
<rect x="173.25" y="83.25" width="83.5" height="78" stroke="#9E9E9E" stroke-width="0.5"/>
<rect x="173.25" y="161.25" width="83.5" height="78" stroke="#9E9E9E" stroke-width="0.5"/>
<rect x="173.25" y="239.25" width="83.5" height="78" stroke="#9E9E9E" stroke-width="0.5"/>
<rect x="257.25" y="5.25" width="83.5" height="78" stroke="#9E9E9E" stroke-width="0.5"/>
<rect x="257.25" y="83.25" width="83.5" height="78" stroke="#9E9E9E" stroke-width="0.5"/>
<rect x="257.25" y="161.25" width="83.5" height="78" stroke="#9E9E9E" stroke-width="0.5"/>
<rect x="257.25" y="239.25" width="83.5" height="78" stroke="#9E9E9E" stroke-width="0.5"/>
<rect x="5" y="161" width="336" height="157" fill="url(#paint0_linear_1_305)" fill-opacity="0.6"/>
<rect x="4" y="4" width="338" height="314" rx="9" stroke="#9E9E9E" stroke-width="2"/>
<rect x="3" y="3" width="340" height="317" rx="10" stroke="white" stroke-width="4" stroke-linecap="square" stroke-dasharray="200 200"/>
<defs>
<linearGradient id="paint0_linear_1_305" x1="173" y1="161" x2="173" y2="318" gradientUnits="userSpaceOnUse">
<stop stop-color="white"/>
<stop offset="0.0001" stop-color="#E3E3E3"/>
<stop offset="1" stop-color="#D6D6D6" stop-opacity="0.1"/>
</linearGradient>
</defs>
</svg>
