<svg width="18" height="20" viewBox="0 0 18 20" fill="none" xmlns="http://www.w3.org/2000/svg">
<path d="M11.1895 13.2811H12.478C12.6928 13.2811 12.9075 12.9706 12.9075 12.6602V6.14147C12.9075 5.83105 12.6928 5.52063 12.478 5.52063H11.1895C10.9747 5.52063 10.7599 5.83105 10.7599 6.14147V12.6602C10.7599 12.9706 10.9747 13.2811 11.1895 13.2811ZM14.4108 13.2811H15.6994C15.9141 13.2811 16.1289 12.9706 16.1289 12.6602V1.48521C16.1289 1.1748 15.9141 0.86438 15.6994 0.86438H14.4108C14.1961 0.86438 13.9813 1.1748 13.9813 1.48521V12.6602C13.9813 12.9706 14.1961 13.2811 14.4108 13.2811ZM4.74671 13.2811H6.03526C6.25002 13.2811 6.46478 12.9706 6.46478 12.6602V9.24563C6.46478 8.93522 6.25002 8.6248 6.03526 8.6248H4.74671C4.53196 8.6248 4.3172 8.93522 4.3172 9.24563V12.6602C4.3172 12.9706 4.53196 13.2811 4.74671 13.2811ZM7.96809 13.2811H9.25664C9.4714 13.2811 9.68615 12.9706 9.68615 12.6602V3.0373C9.68615 2.72688 9.4714 2.41646 9.25664 2.41646H7.96809C7.75333 2.41646 7.53857 2.72688 7.53857 3.0373V12.6602C7.53857 12.9706 7.75333 13.2811 7.96809 13.2811ZM16.6658 16.3852H2.16962V1.64042C2.16962 1.21166 1.92936 0.86438 1.63272 0.86438H0.558929C0.262294 0.86438 0.0220337 1.21166 0.0220337 1.64042V17.9373C0.0220337 18.7943 0.502891 19.4894 1.09582 19.4894H16.6658C16.9624 19.4894 17.2027 19.1421 17.2027 18.7133V17.1613C17.2027 16.7325 16.9624 16.3852 16.6658 16.3852Z" fill="#FDFDFD"/>
</svg>
