<svg width="30" height="27" viewBox="0 0 30 27" fill="none" xmlns="http://www.w3.org/2000/svg">
<path d="M25 11.6666C25 9.82665 26.4933 8.33331 28.3333 8.33331V6.99998C28.3333 1.66665 27 0.333313 21.6666 0.333313H8.33329C2.99996 0.333313 1.66663 1.66665 1.66663 6.99998V7.66665C3.50663 7.66665 4.99996 9.15998 4.99996 11C4.99996 12.84 3.50663 14.3333 1.66663 14.3333V15C1.66663 20.3333 2.99996 21.6666 8.33329 21.6666H21.6666C27 21.6666 28.3333 20.3333 28.3333 15C26.4933 15 25 13.5066 25 11.6666Z" stroke="white" stroke-width="1.5" stroke-linecap="round" stroke-linejoin="round"/>
<path d="M11 14.6667L19 6.66669" stroke="white" stroke-width="1.5" stroke-linecap="round" stroke-linejoin="round"/>
<path d="M18.9927 14.6667H19.0047" stroke="white" stroke-width="2" stroke-linecap="round" stroke-linejoin="round"/>
<path d="M10.9927 7.33335H11.0047" stroke="white" stroke-width="2" stroke-linecap="round" stroke-linejoin="round"/>
</svg>
